<svg width="217" height="306" viewBox="0 0 217 306" fill="none" xmlns="http://www.w3.org/2000/svg">
<path d="M150.878 76.4944C149.194 81.1374 159.965 69.818 161.83 65.9215C166.25 56.685 168.192 46.1457 169.16 36.0027C169.954 27.6769 157.928 24.6256 155.324 32.849C151.056 46.3315 156.237 61.7212 150.878 76.4944ZM124.103 72.6864C124.878 73.59 115.671 30.2684 115.522 25.3476C115.261 16.7402 102.21 16.6014 102.243 25.2713C102.305 41.7925 113.752 60.6204 124.103 72.6864ZM111.343 95.3295C112.518 95.8323 83.6792 62.0593 80.2059 57.1118C74.1968 48.5522 60.7276 56.7851 66.2502 65.8137C74.4302 79.1869 97.6145 89.4545 111.343 95.3295ZM115.753 112.698C117.216 112.055 61.8468 116.083 57.0364 115.658C50.3397 115.066 49.1208 125.203 55.841 125.88C75.7649 127.887 97.8232 120.573 115.753 112.698ZM134.749 124.441C133.258 117.13 126.077 142.398 122.532 147.621C119.632 151.895 125.687 156.767 129.021 152.713C135.48 144.859 136.719 134.101 134.749 124.441ZM162.255 106.305C158.049 106.058 172.829 116.749 185.444 115.118C186.762 114.948 187.946 114.415 188.821 113.387C195.682 105.334 168.402 106.665 162.255 106.305ZM156.265 90.7095C154.092 91.7446 167.213 92.2774 172.922 88.8173C180.444 84.2585 186.113 76.4239 190.036 68.6751C191.264 66.2492 191.179 63.4083 189.431 61.2355C185.102 55.8519 167.461 85.3759 156.265 90.7095Z" fill="#97AC83"/>
<ellipse cx="9.27214" cy="11.5902" rx="9.27214" ry="11.5902" transform="matrix(-0.93821 -0.346067 -0.346067 0.93821 148.465 95.4376)" fill="#97AC83"/>
<circle cx="6.9541" cy="6.9541" r="6.9541" transform="matrix(-0.93821 -0.346067 -0.346067 0.93821 202.746 48.7507)" fill="#97AC83"/>
<path d="M64.0834 187.029C63.4186 188.661 81.5601 174.459 87.0879 171.221C91.7787 168.473 88.1541 161.124 83.1965 163.53C74.5692 167.718 67.5781 178.455 64.0834 187.029ZM49.3808 186.599C50.0837 190.716 58.5868 181.396 52.2613 168.022C51.1739 165.723 48.4641 164.606 46.1458 165.872C42.4174 167.908 48.5715 181.86 49.3808 186.599ZM46.8265 212.508C52.2962 211.46 40.9194 202.767 26.6645 210.08C17.6068 214.727 29.3038 218.91 35.2011 215.846C38.9019 213.923 42.7782 213.284 46.8265 212.508ZM58.0356 220.487C58.4988 215.247 51.9279 227.93 51.2177 231.769C49.4992 241.058 49.6241 251.066 51.5791 260.318C52.1364 262.956 54.5493 264.836 57.2916 264.322C60.3936 263.742 57.3896 227.797 58.0356 220.487ZM68.1964 219.42C67.2093 219.005 77.6635 234.179 78.4419 240.832C79.0893 246.364 87.3579 245.134 86.3673 239.654C84.5476 229.585 77.258 223.232 68.1964 219.42ZM79.4882 208.926C76.2129 212.532 96.0632 215.376 91.6122 212.377C91.5469 212.333 97.3719 207.889 95.4006 206.824C94.0002 206.067 89.4869 207.447 92.9348 206.529C93.0338 206.503 93.3369 206.452 93.2353 206.464C90.1108 206.857 81.0519 207.204 79.4882 208.926ZM94.964 206.626C93.213 205.98 91.2699 206.876 90.624 208.627C89.9781 210.378 90.874 212.321 92.625 212.967C94.3761 213.613 96.3192 212.717 96.965 210.966C97.6109 209.215 96.715 207.272 94.964 206.626ZM74.9576 190.043C74.5766 190.35 100.393 184.728 108.489 184.009C114.618 183.465 114.452 174.19 108.216 174.27C96.719 174.417 83.5108 183.148 74.9576 190.043Z" fill="#F3EBD6"/>
<ellipse cx="4.96666" cy="3.97333" rx="4.96666" ry="3.97333" transform="matrix(-0.93821 -0.346067 -0.346067 0.93821 98.0344 155.246)" fill="#F3EBD6"/>
<ellipse cx="7.94666" cy="6.95333" rx="7.94666" ry="6.95333" transform="matrix(-0.93821 -0.346067 -0.346067 0.93821 70.1523 202.135)" fill="#F3EBD6"/>
<circle cx="5.96" cy="5.96" r="5.96" transform="matrix(-0.93821 -0.346067 -0.346067 0.93821 59.8242 270.32)" fill="#F3EBD6"/>
<path d="M164.351 153.094C164.509 151.335 162.24 150.497 161.217 151.938L155.52 159.96C155.236 160.36 154.796 160.621 154.309 160.677L145.109 161.743C143.7 161.906 143.075 163.601 144.04 164.64L150.344 171.425C150.678 171.784 150.844 172.268 150.8 172.757L149.923 182.557C149.765 184.316 152.035 185.153 153.057 183.713L158.754 175.69C159.038 175.291 159.478 175.03 159.966 174.973L169.166 173.908C170.574 173.744 171.199 172.049 170.234 171.011L163.93 164.226C163.596 163.867 163.43 163.382 163.474 162.894L164.351 153.094Z" fill="#F3EBD6"/>
<path d="M134.318 184.519C134.481 182.755 132.202 181.915 131.181 183.362L128.573 187.057C128.291 187.457 127.853 187.719 127.367 187.778L122.325 188.386C120.925 188.555 120.304 190.238 121.259 191.276L124.698 195.013C125.029 195.373 125.193 195.856 125.148 196.344L124.731 200.847C124.568 202.611 126.847 203.452 127.868 202.004L130.476 198.309C130.758 197.909 131.196 197.647 131.682 197.589L136.724 196.98C138.124 196.811 138.745 195.128 137.79 194.09L134.351 190.354C134.019 189.994 133.856 189.51 133.901 189.023L134.318 184.519Z" fill="#F3EBD6"/>
</svg>
