<svg width="165" height="162" viewBox="0 0 165 162" fill="none" xmlns="http://www.w3.org/2000/svg">
<path d="M92.284 70.4921C92.502 70.0856 92.9623 69.8713 93.4038 70.0044C95.1538 70.5317 91.7584 75.9977 91.2774 77.066C89.0447 82.0249 86.9309 87.0388 84.6699 91.9847C77.844 106.916 68.5835 127.163 51.6799 132.178C42.3806 134.936 28.1612 132.711 23.2909 123.002C16.8083 110.078 29.2594 98.9591 41.5829 101.608C43.3997 101.998 44.3515 104.168 43.2074 105.75C42.2277 107.105 39.7671 107.73 38.4768 108.983C33.7621 113.562 30.8734 122.365 36.9583 127.008C45.4231 133.468 56.7565 128.319 63.4911 121.903C78.1219 107.964 82.9847 87.8359 92.284 70.4921Z" fill="#FFF2E1"/>
<path d="M100.372 58.5365C102.469 55.8897 106.97 58.0622 105.763 61.3098C104.562 64.5411 101.258 67.7169 99.4583 70.7441C94.2646 79.4816 89.7318 89.9405 89.899 100.239C89.9935 106.062 93.0867 118.136 99.8917 116.44C101.757 115.975 98.7 120.778 92.9487 118.894C88.5752 117.461 85.7946 106.005 85.1188 101.9C82.6739 87.0495 91.3619 69.9086 100.372 58.5365Z" fill="#FFF2E1"/>
<path d="M66.4009 100.317C66.2669 100.348 66.1326 100.367 66.0263 100.271C65.606 99.8922 67.1995 98.5781 67.4744 98.2571C67.4826 98.2476 67.4923 98.2394 67.5004 98.2298C67.8888 97.7661 69.2444 98.3735 68.8277 98.8654C68.4446 99.3176 66.8626 100.211 66.4009 100.317ZM68.2724 99.3221C67.7742 99.6191 66.9228 98.9105 67.3297 98.4274C67.7966 97.8728 68.5202 97.0475 68.8111 96.5463C69.7026 95.0108 70.0375 93.1407 69.8392 91.3625C69.731 90.3914 69.3837 88.6869 68.2148 88.5707C65.3203 88.2829 63.5403 92.3049 63.9917 94.8029C64.3245 96.6444 65.6806 98.0982 66.793 99.4757C67.2564 100.049 66.8454 100.952 66.1227 100.739C65.5812 100.579 64.9362 99.7162 64.567 99.2854C62.9278 97.372 61.5524 95.2508 61.0269 92.6913C60.0823 88.0904 63.2383 83.5932 67.801 83.5384C71.8484 83.4898 74.1405 87.4525 73.7208 91.358C73.3496 94.8126 71.1344 97.6157 68.2724 99.3221ZM65.3894 100.225C64.8681 99.6212 65.8473 98.94 66.5656 99.2994C67.0451 99.5393 67.4728 100.096 67.9018 100.434C69.1153 101.392 70.4829 102.121 71.9679 102.477C74.8436 103.167 78.8702 102.595 80.5941 101.71C82.318 100.825 83.648 103.045 82.1743 104.457C81.2102 105.381 79.0512 105.966 77.7864 105.952C73.2355 105.634 68.5796 103.923 65.3894 100.225ZM77.7864 105.952C75.7551 105.592 76.0878 103.554 77.9604 102.799C79.8279 102.045 83.8593 100.416 85.4644 99.597C86.8628 98.8832 88.2348 98.1052 89.5295 97.1992C90.4536 96.5525 91.3379 95.8369 92.1392 95.0283C94.5648 92.5805 96.2322 89.4011 96.2804 85.8199C96.2925 84.9255 96.3645 83.3275 95.7625 82.5752C95.2251 81.9036 94.4632 81.2025 93.7275 80.8975C90.2007 79.4354 89.1754 74.7443 92.5571 72.5429C94.8224 71.0682 98.3682 72.1569 100.597 73.4293C108.395 77.8817 106.654 89.56 101.903 95.7079C96.9537 102.113 82.8447 106.417 77.7864 105.952ZM95.3105 71.816C100.201 72.3339 100.029 84.7978 95.4993 82.3055C92.0276 80.3951 90.156 80.5939 87.7281 80.5653C84.0057 80.5213 80.2654 81.2374 76.5604 80.616C69.4182 79.4181 63.7548 74.5651 65.1086 66.5092C65.4094 64.7198 66.0004 62.8972 66.8481 61.3091C67.3984 60.2782 68.9665 60.7489 68.8226 61.9561C68.7175 62.8382 67.9131 63.8598 67.5821 64.6959C66.7838 66.7127 66.3496 68.9765 66.7375 71.1503C67.6732 76.3931 74.0045 77.3335 78.1084 76.2159C84.0562 74.5962 88.7921 71.1258 95.3105 71.816ZM67.5227 62.5317C66.8685 62.237 66.9274 61.1888 67.667 61.0667C68.5119 60.9272 69.9166 61.4532 70.7714 61.6168C71.6156 61.7783 71.8925 62.9786 71.1028 63.4435C70.3489 63.8872 68.3043 62.8839 67.5227 62.5317ZM68.4849 62.9622C67.6244 62.5325 68.5206 61.0252 69.4738 61.2921C70.6338 61.6168 72.6429 61.7019 73.6297 61.6664C75.7044 61.592 77.7344 61.1499 79.6026 60.1791C80.1628 59.888 80.7025 59.5542 81.2189 59.1847C84.1717 57.0716 82.481 56.6615 79.8758 55.4525C77.6853 54.4359 77.3524 51.2895 79.5463 49.9959C81.3364 48.9404 84.4973 50.2678 86.0483 51.4803C89.7319 54.3597 89.5527 60.247 85.4374 62.5836C80.9245 65.1459 71.2563 64.3461 68.4849 62.9622ZM81.4305 49.6209C84.085 49.814 84.7904 58.8859 82.6532 57.0101C80.9772 55.5391 78.1956 54.9555 76.1123 55.5276C72.9149 56.4056 70.5588 59.7678 68.6443 62.4464C68.0174 63.3234 66.6163 62.8379 66.7351 61.6993C67.0068 59.096 70.8881 54.3681 72.437 52.8364C74.7385 50.5605 78.2641 49.3905 81.4305 49.6209ZM68.0135 61.098C68.7073 61.3686 68.63 62.4722 67.8728 62.5748C66.7396 62.7284 63.8851 61.2055 62.8653 60.5652C59.5579 58.4886 55.7978 53.4502 56.3955 49.1402C56.5164 48.2689 56.8447 47.4298 57.3777 46.7462C58.0908 45.8315 59.1215 45.2608 60.2338 45.1158C63.9181 44.6355 66.2037 48.182 68.0033 50.9528C68.103 51.1063 67.6708 50.896 67.6509 50.8867C67.1598 50.6591 66.6593 50.4518 66.1501 50.2731C65.2386 49.9531 61.3117 48.8432 60.7042 50.3616C59.5198 53.3221 61.7484 57.1589 63.8973 58.9006C65.137 59.9055 66.5568 60.5299 68.0135 61.098Z" fill="#FFF2E1"/>
<path d="M68.2311 51.0275C67.353 49.7572 66.5043 48.589 66.2284 48.3818L63.8341 49.6882C64.7555 49.8475 66.0235 50.8697 67.2813 51.9263C68.145 52.652 68.8713 51.9537 68.2311 51.0275Z" fill="#FFF2E1"/>
<path d="M62.9858 102.797C64.4476 101.851 66.6279 100.52 67.1382 99.8343L66.5636 99.2815C65.8391 100.044 63.6659 101.326 61.7232 102.472L61.7139 102.477C58.0574 104.171 55.5867 104.944 53.3655 104.628C50.5482 104.227 48.853 101.193 49.2836 98.4009C49.4804 97.1248 49.9264 95.9887 50.6771 94.7467C51.1681 93.9343 50.8779 92.8194 49.9511 92.5925C48.6445 92.2726 47.5304 92.396 46.0888 93.2399C45.3594 93.6669 44.8268 94.3576 44.5286 95.1443C44.0074 96.5194 43.7443 97.6418 43.7348 98.6467C43.7031 102.013 46.7166 104.658 49.9149 105.778C53.1555 106.914 56.7935 105.827 59.9176 104.406L60.946 103.938C61.6564 103.615 62.3312 103.22 62.9858 102.797Z" fill="#FFF2E1"/>
<path d="M96.205 87.4234C96.998 81.4607 92.7927 80.2882 82.1744 80.7908L92.9487 77.776L99.6528 85.2125L96.205 87.4234Z" fill="#FFF2E1"/>
<path d="M81.073 59.2853C82.4428 56.5467 81.2251 56.1785 79.0139 55.3661C82.5374 53.7734 83.6875 54.1414 84.042 57.376L81.073 59.2853Z" fill="#FFF2E1"/>
<path fill-rule="evenodd" clip-rule="evenodd" d="M67.4229 18.1767C67.4719 18.6559 67.1231 19.0841 66.6439 19.1331C30.1178 22.8655 1.74446 52.2038 1.74446 87.7658C1.74446 125.849 34.2886 156.799 74.531 156.799C75.0127 156.799 75.4032 157.19 75.4032 157.671C75.4032 158.153 75.0127 158.543 74.531 158.543C33.4122 158.543 -4.7866e-06 126.898 -3.07609e-06 87.7658C-1.47894e-06 51.2274 29.134 21.2125 66.4666 17.3977C66.9458 17.3487 67.374 17.6975 67.4229 18.1767ZM88.2182 19.0599C88.3082 18.5867 88.7647 18.2759 89.238 18.3659C91.9843 18.8879 94.6763 19.5532 97.3049 20.3534C97.7657 20.4937 98.0256 20.981 97.8853 21.4418C97.745 21.9026 97.2577 22.1625 96.7969 22.0222C94.228 21.2402 91.5969 20.5899 88.9122 20.0797C88.439 19.9897 88.1283 19.5331 88.2182 19.0599ZM147.673 79.3924C148.151 79.3385 148.583 79.6829 148.637 80.1616C148.918 82.6601 149.062 85.1971 149.062 87.7658C149.062 101.559 144.907 114.43 137.724 125.31C137.458 125.712 136.917 125.823 136.515 125.558C136.113 125.292 136.002 124.751 136.268 124.349C143.271 113.741 147.318 101.201 147.318 87.7658C147.318 85.2624 147.177 82.7905 146.903 80.3567C146.849 79.878 147.194 79.4462 147.673 79.3924Z" fill="#FCFFF9"/>
<path d="M85.5752 155.765C85.6139 156.443 85.5905 157.078 85.5051 157.672C85.4234 158.261 85.2788 158.795 85.0714 159.272C84.8637 159.745 84.5732 160.125 84.1999 160.413C83.8303 160.697 83.3957 160.853 82.8962 160.881C82.3848 160.911 81.9176 160.738 81.4946 160.365C81.0713 159.987 80.7389 159.493 80.4972 158.883C80.2595 158.272 80.1203 157.609 80.0796 156.896C80.0409 156.218 80.0627 155.59 80.1451 155.013C80.2314 154.435 80.3789 153.918 80.5874 153.46C80.7997 152.999 81.091 152.632 81.4613 152.36C81.8353 152.085 82.2741 151.932 82.7775 151.904C83.2929 151.874 83.7597 152.038 84.1778 152.396C84.5958 152.75 84.923 153.223 85.1596 153.814C85.3962 154.405 85.5347 155.055 85.5752 155.765ZM80.9626 156.374C80.9897 156.85 81.0589 157.331 81.1702 157.818C81.2855 158.305 81.4347 158.757 81.6177 159.177C81.8007 159.596 82.0287 159.933 82.3018 160.187C82.5788 160.442 82.872 160.561 83.1812 160.543C83.4428 160.528 83.6709 160.414 83.8656 160.2C84.0639 159.981 84.2157 159.714 84.3209 159.398C84.4299 159.078 84.5127 158.717 84.5694 158.316C84.63 157.915 84.6662 157.539 84.678 157.188C84.6898 156.838 84.6867 156.504 84.6686 156.186C84.6414 155.711 84.5728 155.239 84.4626 154.772C84.3524 154.305 84.2087 153.878 84.0315 153.49C83.858 153.099 83.6413 152.787 83.3815 152.555C83.1254 152.319 82.8527 152.209 82.5633 152.226C82.3016 152.241 82.0689 152.344 81.865 152.534C81.6609 152.721 81.4994 152.959 81.3807 153.248C81.2618 153.533 81.1651 153.861 81.0908 154.231C81.0204 154.601 80.9756 154.965 80.9563 155.325C80.9408 155.679 80.9429 156.029 80.9626 156.374Z" fill="#FCFFF9"/>
<path d="M90.7311 151.207C89.8802 151.511 89.266 152.086 88.8885 152.93C88.5143 153.77 88.3976 154.885 88.5385 156.274C88.7483 155.965 89.012 155.714 89.3296 155.519C89.6466 155.321 89.9872 155.192 90.3514 155.13C90.6334 155.083 90.9092 155.083 91.1788 155.13C91.4485 155.178 91.6996 155.27 91.9322 155.408C92.1648 155.546 92.3635 155.747 92.5283 156.009C92.6964 156.266 92.8104 156.573 92.8703 156.93C92.9532 157.423 92.9231 157.891 92.7801 158.334C92.6364 158.773 92.3924 159.142 92.0481 159.441C91.7078 159.74 91.2968 159.93 90.8151 160.011C90.0202 160.145 89.3486 159.97 88.8002 159.486C88.2552 158.998 87.8971 158.244 87.726 157.226C87.5839 156.381 87.5522 155.593 87.6309 154.863C87.7135 154.132 87.8895 153.503 88.1591 152.974C88.4287 152.446 88.7737 152.007 89.1943 151.659C89.6182 151.306 90.1022 151.059 90.6465 150.919L90.7311 151.207ZM90.0397 155.612C89.7538 155.66 89.4844 155.781 89.2313 155.977C88.9783 156.172 88.7665 156.433 88.5959 156.76L88.664 157.165C88.714 157.463 88.7937 157.758 88.9031 158.049C89.0125 158.341 89.1526 158.623 89.3233 158.897C89.4934 159.166 89.7075 159.374 89.9655 159.52C90.2275 159.665 90.5112 159.712 90.8166 159.66C91.0711 159.618 91.2874 159.515 91.4654 159.352C91.6467 159.185 91.7776 158.982 91.8582 158.743C91.9389 158.504 91.9872 158.252 92.0031 157.987C92.0185 157.719 92.0028 157.446 91.956 157.168C91.8593 156.592 91.6293 156.17 91.266 155.901C90.9027 155.632 90.4939 155.535 90.0397 155.612Z" fill="#FCFFF9"/>
<path d="M96.8141 158.221L96.7277 158.366C96.3908 158.492 96.1051 158.674 95.8706 158.914C95.6022 158.547 95.4028 158.235 95.2723 157.977C95.6146 157.678 95.973 157.459 96.3473 157.319C96.4191 157.604 96.5747 157.905 96.8141 158.221Z" fill="#FCFFF9"/>
<path d="M103.114 151.508C103.337 152.15 103.488 152.767 103.568 153.362C103.651 153.951 103.657 154.503 103.588 155.019C103.518 155.531 103.343 155.976 103.062 156.355C102.784 156.729 102.409 156.998 101.936 157.162C101.452 157.33 100.956 157.292 100.447 157.049C99.9364 156.801 99.4815 156.417 99.0821 155.895C98.6864 155.373 98.3715 154.774 98.1372 154.099C97.9146 153.457 97.764 152.848 97.6853 152.27C97.6104 151.69 97.6107 151.152 97.6863 150.655C97.7643 150.153 97.9442 149.721 98.2261 149.358C98.5104 148.991 98.8908 148.724 99.3673 148.559C99.8549 148.39 100.349 148.42 100.849 148.65C101.348 148.876 101.792 149.241 102.181 149.745C102.57 150.249 102.881 150.837 103.114 151.508ZM98.8439 153.355C99.0001 153.806 99.1982 154.25 99.4384 154.687C99.6824 155.124 99.9496 155.519 100.24 155.872C100.531 156.225 100.842 156.487 101.175 156.657C101.511 156.826 101.825 156.86 102.118 156.759C102.365 156.673 102.554 156.5 102.682 156.241C102.813 155.977 102.886 155.679 102.901 155.346C102.918 155.008 102.899 154.638 102.844 154.237C102.793 153.835 102.725 153.463 102.64 153.123C102.556 152.782 102.461 152.462 102.357 152.162C102.201 151.711 102.006 151.277 101.773 150.858C101.539 150.439 101.284 150.067 101.007 149.743C100.733 149.413 100.44 149.172 100.126 149.021C99.8155 148.864 99.5232 148.833 99.2493 148.928C99.0017 149.014 98.8059 149.176 98.6619 149.415C98.5166 149.651 98.4264 149.924 98.3913 150.234C98.3549 150.541 98.3515 150.883 98.3812 151.259C98.4147 151.634 98.4712 151.997 98.5509 152.348C98.633 152.693 98.7306 153.029 98.8439 153.355Z" fill="#FCFFF9"/>
<path d="M107.676 154.515C108.464 153.961 108.941 153.23 109.107 152.32C109.273 151.411 109.086 150.346 108.546 149.125C108.48 149.402 108.314 149.701 108.048 150.021C107.781 150.337 107.482 150.573 107.152 150.729C106.89 150.854 106.632 150.935 106.377 150.972C106.126 151.008 105.869 150.998 105.605 150.943C105.345 150.886 105.094 150.746 104.852 150.522C104.609 150.299 104.399 149.999 104.22 149.622C104.007 149.174 103.903 148.722 103.907 148.268C103.915 147.811 104.036 147.391 104.271 147.007C104.51 146.621 104.852 146.323 105.297 146.111C106.046 145.756 106.758 145.763 107.43 146.134C108.106 146.503 108.668 147.158 109.114 148.098C109.383 148.664 109.574 149.23 109.689 149.796C109.807 150.359 109.845 150.889 109.803 151.383C109.764 151.876 109.663 152.34 109.5 152.773C109.336 153.207 109.113 153.592 108.829 153.929C108.545 154.266 108.213 154.544 107.834 154.764L107.676 154.515ZM107.249 150.143C107.533 150.008 107.784 149.779 108.004 149.455C108.226 149.125 108.335 148.865 108.332 148.673C108.221 148.457 108.106 148.253 107.988 148.058C107.869 147.864 107.733 147.661 107.579 147.448C107.425 147.235 107.263 147.055 107.092 146.908C106.923 146.755 106.745 146.626 106.559 146.521C106.373 146.416 106.175 146.36 105.966 146.354C105.758 146.343 105.552 146.386 105.348 146.483C105.114 146.594 104.938 146.745 104.819 146.938C104.698 147.128 104.633 147.339 104.625 147.571C104.62 147.802 104.646 148.038 104.703 148.279C104.762 148.514 104.85 148.754 104.966 148.998C105.243 149.583 105.573 149.978 105.956 150.183C106.341 150.382 106.772 150.369 107.249 150.143Z" fill="#FCFFF9"/>
<path d="M114.574 150.825L114.53 150.988C114.239 151.2 114.013 151.452 113.852 151.746C113.495 151.465 113.219 151.219 113.023 151.005C113.272 150.625 113.558 150.317 113.881 150.082C114.027 150.337 114.258 150.585 114.574 150.825Z" fill="#FCFFF9"/>
<path d="M117.281 148.44L117.331 148.47C117.605 148.301 117.861 148.14 118.097 147.987C118.337 147.831 118.561 147.682 118.767 147.541C119.022 147.365 119.25 147.189 119.451 147.012C119.656 146.833 119.823 146.642 119.955 146.441C120.09 146.237 120.183 146.016 120.236 145.778C120.289 145.539 120.29 145.271 120.239 144.973L120.422 144.934C120.56 145.345 120.648 145.603 120.686 145.707C120.724 145.811 120.787 146.008 120.876 146.299C120.969 146.587 121.024 146.768 121.041 146.843C121.06 146.912 121.072 146.969 121.078 147.013C120.973 147.076 120.831 147.164 120.653 147.277C120.475 147.389 120.286 147.51 120.085 147.639C119.884 147.767 119.684 147.897 119.486 148.029C119.291 148.158 119.121 148.273 118.977 148.372C118.902 148.424 118.526 148.687 117.85 149.162C117.178 149.634 116.809 149.893 116.743 149.938L116.522 149.837C116.876 147.872 117.075 146.675 117.117 146.246C117.159 145.817 117.181 145.414 117.182 145.038C117.184 144.655 117.159 144.325 117.108 144.048C117.073 143.85 117.034 143.674 116.991 143.521C116.949 143.361 116.898 143.214 116.838 143.077C116.78 142.938 116.714 142.803 116.638 142.672C116.56 142.537 116.47 142.395 116.366 142.244C116.197 141.999 116.019 141.811 115.832 141.679C115.643 141.544 115.449 141.461 115.249 141.43C115.047 141.395 114.839 141.413 114.627 141.482C114.412 141.548 114.195 141.656 113.976 141.807C113.871 141.879 113.763 141.975 113.653 142.094C113.545 142.211 113.444 142.341 113.35 142.484C113.252 142.623 113.167 142.768 113.093 142.92C113.023 143.07 112.969 143.213 112.933 143.349L112.679 143.306C112.716 143.079 112.776 142.859 112.861 142.646C112.949 142.431 113.055 142.231 113.178 142.045C113.301 141.859 113.436 141.689 113.585 141.533C113.737 141.376 113.895 141.241 114.058 141.128C114.349 140.928 114.638 140.787 114.924 140.706C115.208 140.621 115.481 140.597 115.743 140.634C116.008 140.669 116.257 140.765 116.49 140.922C116.727 141.078 116.941 141.294 117.133 141.572C117.286 141.795 117.408 142.039 117.499 142.304C117.59 142.569 117.657 142.846 117.701 143.133C117.746 143.416 117.769 143.706 117.771 144.003C117.777 144.298 117.772 144.588 117.756 144.874C117.738 145.156 117.712 145.427 117.679 145.686C117.645 145.946 117.613 146.182 117.582 146.396L117.424 147.459C117.359 147.87 117.312 148.197 117.281 148.44Z" fill="#FCFFF9"/>
<path d="M124.696 137.738C125.141 138.252 125.51 138.769 125.805 139.292C126.1 139.808 126.311 140.319 126.439 140.823C126.563 141.325 126.565 141.803 126.445 142.259C126.326 142.71 126.077 143.099 125.699 143.426C125.312 143.762 124.837 143.91 124.274 143.873C123.708 143.832 123.143 143.644 122.579 143.308C122.017 142.97 121.503 142.53 121.035 141.99C120.59 141.477 120.224 140.966 119.937 140.459C119.652 139.949 119.453 139.449 119.339 138.959C119.225 138.464 119.232 137.996 119.359 137.555C119.487 137.108 119.742 136.719 120.123 136.389C120.513 136.051 120.983 135.896 121.533 135.924C122.08 135.949 122.627 136.124 123.176 136.447C123.724 136.771 124.231 137.201 124.696 137.738ZM121.415 141.038C121.727 141.398 122.076 141.737 122.461 142.054C122.85 142.369 123.245 142.637 123.645 142.857C124.046 143.077 124.433 143.204 124.804 143.24C125.179 143.272 125.484 143.187 125.718 142.984C125.916 142.813 126.027 142.583 126.05 142.294C126.074 142 126.031 141.696 125.921 141.382C125.812 141.061 125.657 140.725 125.457 140.373C125.26 140.018 125.06 139.698 124.855 139.413C124.65 139.129 124.444 138.866 124.236 138.626C123.924 138.266 123.581 137.934 123.209 137.632C122.837 137.329 122.462 137.079 122.085 136.88C121.708 136.676 121.346 136.561 120.999 136.536C120.652 136.506 120.369 136.585 120.15 136.775C119.952 136.947 119.83 137.17 119.785 137.446C119.738 137.718 119.755 138.005 119.838 138.307C119.918 138.605 120.041 138.924 120.208 139.262C120.378 139.598 120.566 139.914 120.77 140.21C120.974 140.501 121.189 140.776 121.415 141.038Z" fill="#FCFFF9"/>
<path d="M129.737 138.145L129.793 138.164C130.023 137.939 130.237 137.725 130.435 137.524C130.635 137.32 130.82 137.126 130.99 136.942C131.2 136.715 131.385 136.493 131.542 136.277C131.702 136.057 131.825 135.835 131.909 135.609C131.996 135.381 132.039 135.145 132.038 134.901C132.037 134.656 131.979 134.394 131.865 134.115L132.035 134.037C132.259 134.408 132.402 134.64 132.461 134.733C132.521 134.826 132.626 135.005 132.777 135.269C132.93 135.53 133.023 135.695 133.057 135.764C133.09 135.827 133.115 135.88 133.13 135.921C133.041 136.006 132.922 136.123 132.773 136.272C132.624 136.421 132.465 136.58 132.298 136.749C132.13 136.919 131.963 137.09 131.799 137.262C131.636 137.431 131.496 137.579 131.377 137.707C131.315 137.774 131.006 138.113 130.451 138.725C129.898 139.333 129.594 139.666 129.54 139.724L129.302 139.674C129.218 137.68 129.15 136.468 129.097 136.041C129.044 135.613 128.977 135.215 128.896 134.847C128.814 134.474 128.718 134.157 128.607 133.897C128.53 133.712 128.453 133.549 128.378 133.408C128.302 133.262 128.22 133.129 128.131 133.009C128.045 132.886 127.95 132.768 127.848 132.657C127.742 132.543 127.622 132.424 127.489 132.3C127.27 132.097 127.055 131.952 126.844 131.865C126.63 131.775 126.422 131.736 126.22 131.749C126.015 131.76 125.817 131.822 125.624 131.936C125.429 132.048 125.241 132.201 125.06 132.396C124.974 132.489 124.89 132.606 124.808 132.747C124.729 132.885 124.659 133.034 124.597 133.193C124.533 133.35 124.482 133.511 124.443 133.676C124.407 133.837 124.386 133.988 124.38 134.129L124.123 134.143C124.109 133.913 124.12 133.685 124.157 133.459C124.196 133.23 124.255 133.011 124.334 132.803C124.413 132.595 124.508 132.399 124.619 132.215C124.733 132.028 124.857 131.862 124.992 131.716C125.233 131.457 125.484 131.256 125.745 131.114C126.004 130.97 126.265 130.887 126.528 130.865C126.794 130.841 127.058 130.88 127.321 130.983C127.586 131.082 127.842 131.247 128.089 131.476C128.288 131.66 128.46 131.871 128.607 132.11C128.753 132.349 128.88 132.604 128.985 132.875C129.091 133.141 129.177 133.419 129.245 133.708C129.315 133.995 129.373 134.28 129.42 134.562C129.465 134.841 129.499 135.111 129.523 135.371C129.547 135.632 129.567 135.87 129.583 136.085L129.662 137.157C129.689 137.572 129.714 137.901 129.737 138.145Z" fill="#FCFFF9"/>
<path d="M131.86 130.445L131.604 130.497C131.34 130.286 131.078 130.08 130.818 129.877C130.558 129.674 130.294 129.471 130.025 129.267C129.757 129.062 129.49 128.862 129.225 128.666C128.96 128.469 128.691 128.272 128.418 128.074L128.382 128.003C128.59 127.756 128.788 127.515 128.977 127.28C129.166 127.044 129.348 126.811 129.523 126.581C129.747 126.287 129.916 126.048 130.03 125.866C130.141 125.68 130.213 125.519 130.249 125.381C130.284 125.243 130.287 125.114 130.259 124.993C130.228 124.869 130.18 124.723 130.115 124.553C130.097 124.51 130.081 124.473 130.065 124.441C130.052 124.406 130.042 124.376 130.036 124.352L130.199 124.266C130.819 125.077 131.174 125.571 131.263 125.749C131.005 126.036 130.752 126.333 130.505 126.638C130.26 126.941 130.013 127.255 129.766 127.58C129.684 127.688 129.602 127.795 129.521 127.903C129.441 128.007 129.363 128.114 129.284 128.224C129.469 128.375 129.652 128.524 129.834 128.672C130.018 128.817 130.208 128.964 130.404 129.113C130.597 129.26 130.792 129.406 130.991 129.552C131.191 129.694 131.394 129.838 131.598 129.983C131.725 129.586 131.935 129.195 132.228 128.809C132.337 128.667 132.466 128.523 132.616 128.378C132.763 128.231 132.926 128.098 133.106 127.98C133.282 127.86 133.473 127.76 133.677 127.681C133.882 127.602 134.094 127.559 134.314 127.552C134.537 127.542 134.766 127.574 135.003 127.649C135.243 127.722 135.484 127.85 135.728 128.035C137.137 129.107 137.044 130.897 135.447 133.404L135.193 133.256C136.337 131.298 136.319 129.869 135.136 128.97C134.899 128.79 134.659 128.66 134.416 128.58C134.175 128.496 133.935 128.468 133.695 128.495C133.455 128.522 133.22 128.608 132.99 128.752C132.76 128.897 132.541 129.107 132.332 129.382C132.262 129.474 132.2 129.568 132.145 129.667C132.091 129.765 132.044 129.862 132.007 129.957C131.969 130.053 131.937 130.144 131.912 130.23C131.889 130.312 131.872 130.384 131.86 130.445Z" fill="#FCFFF9"/>
<path d="M121.689 29.465C122.293 30.2471 110.351 25.2943 106.875 24.3741C103.926 23.5933 104.782 19.0748 107.824 19.631C113.118 20.5989 118.511 25.3542 121.689 29.465ZM129.573 27.0233C129.812 29.3547 123.814 25.5933 125.225 17.4117C125.467 16.0052 126.765 14.9942 128.208 15.3303C130.53 15.8709 129.299 24.3391 129.573 27.0233ZM134.847 40.6482C131.732 40.903 136.578 34.4936 145.384 36.306C150.979 37.4576 145.283 41.4768 141.634 40.706C139.345 40.2224 137.153 40.4595 134.847 40.6482ZM129.986 46.6464C128.948 43.8824 134.406 49.7527 135.367 51.7218C137.692 56.4862 139.128 61.9157 139.461 67.2124C139.556 68.7224 138.534 70.101 136.974 70.2355C135.21 70.3876 131.433 50.5015 129.986 46.6464ZM124.331 47.5961C124.803 47.2233 121.43 56.9986 122.009 60.7124C122.49 63.8007 117.835 64.3784 117.547 61.2661C117.018 55.5488 120.005 51.0184 124.331 47.5961ZM116.649 43.6184C118.962 45.0764 108.657 49.5965 110.613 47.3059C110.641 47.2723 106.824 45.7448 107.73 44.8727C108.374 44.2533 111.021 44.3212 109.019 44.3429C108.961 44.3436 108.79 44.3616 108.847 44.3532C110.595 44.0959 115.545 42.9223 116.649 43.6184ZM107.936 44.7003C108.786 44.088 109.971 44.2805 110.584 45.1302C111.196 45.9799 111.003 47.1651 110.154 47.7774C109.304 48.3897 108.119 48.1972 107.507 47.3475C106.894 46.4978 107.087 45.3126 107.936 44.7003ZM116.262 32.7281C116.514 32.8369 101.711 33.676 97.2256 34.5038C93.83 35.1305 92.5263 30.0906 95.9098 29.1968C102.148 27.5489 110.601 30.2854 116.262 32.7281Z" fill="#FFF2E1"/>
<ellipse cx="102.122" cy="17.5623" rx="2.78715" ry="2.22972" transform="rotate(-35.7769 102.122 17.5623)" fill="#FFF2E1"/>
<ellipse cx="126.576" cy="39.102" rx="4.45944" ry="3.90201" transform="rotate(-35.7769 126.576 39.102)" fill="#FFF2E1"/>
<circle cx="141.175" cy="74.6175" r="3.34458" transform="rotate(-35.7769 141.175 74.6175)" fill="#FFF2E1"/>
<path d="M75.7563 9.65964C75.7937 8.63965 77.1555 8.3245 77.6372 9.22435L80.1866 13.9865C80.3204 14.2365 80.5539 14.4179 80.8292 14.4856L85.8079 15.7108C86.6035 15.9066 86.8389 16.9237 86.2102 17.4492L82.276 20.7371C82.0584 20.9189 81.9283 21.1844 81.9179 21.4677L81.7198 26.8657C81.6824 27.8857 80.3206 28.2009 79.8389 27.301L77.2895 22.5389C77.1557 22.2889 76.9222 22.1075 76.6469 22.0398L71.6682 20.8145C70.8726 20.6187 70.6372 19.6016 71.2659 19.0762L75.2001 15.7883C75.4177 15.6065 75.5478 15.3409 75.5582 15.0576L75.7563 9.65964Z" fill="#FFF2E1"/>
</svg>
